<svg xmlns="http://www.w3.org/2000/svg" width="640" height="360" viewBox="0 0 640 360">
  <defs>
    <linearGradient id="g1" x1="0%" y1="0%" x2="100%" y2="100%">
      <stop offset="0%" stop-color="#0ea5e9"/>
      <stop offset="100%" stop-color="#1e3a8a"/>
    </linearGradient>
  </defs>
  <rect width="640" height="360" fill="#0b1224"/>
  <rect x="24" y="24" width="592" height="312" rx="28" fill="url(#g1)" opacity="0.9"/>
  <path d="M220 260c-10-60 0-120 30-150 10-10 30-10 40 0 14 14 22 24 40 24s26-10 40-24c10-10 30-10 40 0 30 30 40 90 30 150l-60 16-40-36-40 36z" fill="#e2e8f0" opacity="0.95"/>
  <path d="M270 150c30 40 70 40 100 0" stroke="#0b1224" stroke-width="10" stroke-linecap="round" fill="none" opacity="0.8"/>
  <text x="50%" y="320" text-anchor="middle" fill="#e2e8f0" font-family="Arial, sans-serif" font-size="26">Urban hoodie</text>
</svg>
